<svg width="53" height="55" viewBox="0 0 53 55" fill="none" xmlns="http://www.w3.org/2000/svg">
<path d="M24.4463 0.635461C25.5396 -0.211624 27.0676 -0.211624 28.1609 0.635461L32.7889 4.22117C33.3458 4.65265 34.0356 4.87677 34.7398 4.85504L40.5916 4.67443C41.974 4.63177 43.2101 5.52988 43.5967 6.85783L45.2333 12.479C45.4302 13.1554 45.8565 13.7422 46.439 14.1385L51.2793 17.432C52.4228 18.21 52.895 19.6632 52.4272 20.9648L50.4471 26.4744C50.2089 27.1374 50.2089 27.8626 50.4471 28.5256L52.4272 34.0352C52.895 35.3368 52.4228 36.79 51.2793 37.568L46.439 40.8615C45.8565 41.2578 45.4302 41.8446 45.2333 42.521L43.5967 48.1422C43.2101 49.4701 41.974 50.3682 40.5916 50.3256L34.7398 50.145C34.0356 50.1232 33.3458 50.3474 32.7889 50.7788L28.1609 54.3645C27.0676 55.2116 25.5396 55.2116 24.4463 54.3645L19.8182 50.7788C19.2613 50.3474 18.5715 50.1232 17.8674 50.145L12.0156 50.3256C10.6332 50.3682 9.39702 49.4701 9.0104 48.1422L7.37387 42.521C7.17693 41.8446 6.75063 41.2578 6.16817 40.8615L1.32782 37.568C0.184338 36.79 -0.287829 35.3368 0.179941 34.0352L2.16001 28.5256C2.39828 27.8626 2.39828 27.1374 2.16001 26.4744L0.179941 20.9648C-0.287829 19.6632 0.184337 18.21 1.32782 17.432L6.16817 14.1385C6.75063 13.7422 7.17693 13.1554 7.37387 12.479L9.0104 6.85783C9.39702 5.52988 10.6332 4.63177 12.0156 4.67443L17.8674 4.85504C18.5715 4.87677 19.2613 4.65265 19.8182 4.22117L24.4463 0.635461Z" fill="#E5E5E5"/>
</svg>
