<svg width="81" height="15" viewBox="0 0 81 15" fill="none" xmlns="http://www.w3.org/2000/svg">
<path d="M2.63481 1.0022C2.86111 1.02375 3.0982 1.04531 3.34605 1.06686C3.60468 1.07764 3.8202 1.08302 3.99263 1.08302C4.22971 1.08302 4.49911 1.07764 4.80085 1.06686C5.11336 1.05608 5.43127 1.04531 5.75456 1.03453C6.07785 1.02375 6.38497 1.00758 6.67593 0.986034C6.96689 0.964484 7.20397 0.94832 7.38717 0.93754C7.58114 0.92676 7.77512 0.899826 7.96909 0.856718C8.17384 0.813609 8.34626 0.765115 8.48635 0.711237L9.77951 1.71344C9.67171 1.84275 9.56937 1.96129 9.47239 2.06905C9.3754 2.16604 9.29458 2.27381 9.22992 2.39234C9.04673 2.69408 8.83659 3.10897 8.5995 3.63701C8.36242 4.15427 8.10919 4.71464 7.83977 5.31811C7.58114 5.92156 7.3279 6.50893 7.08004 7.08004C6.9184 7.44647 6.75137 7.83442 6.57894 8.24389C6.40652 8.65335 6.22871 9.06292 6.04552 9.47239C5.86232 9.87114 5.68451 10.2483 5.51209 10.6039C5.33966 10.9487 5.17263 11.2505 5.01099 11.5091C4.6877 11.994 4.3267 12.355 3.92797 12.5921C3.52924 12.8184 3.0497 12.9316 2.48933 12.9316C1.77809 12.9316 1.18539 12.6999 0.711237 12.2365C0.237082 11.7731 0 11.132 0 10.3129C0 9.66636 0.14548 9.06292 0.436441 8.50252C0.727402 7.94212 1.1369 7.45718 1.66494 7.04771C2.20375 6.62744 2.83417 6.30415 3.55619 6.07785C4.2782 5.85154 5.07026 5.73839 5.93236 5.73839C6.8699 5.73839 7.77512 5.84619 8.648 6.06168C9.52088 6.27717 10.3345 6.55197 11.0888 6.88607C11.8539 7.22017 12.5383 7.57033 13.1417 7.93676C13.756 8.29238 14.2786 8.61567 14.7097 8.90663L13.756 11.1535C13.271 10.7009 12.7268 10.2644 12.1234 9.84417C11.5199 9.42389 10.8733 9.0413 10.1836 8.69649C9.50472 8.34087 8.77731 8.06072 8.00142 7.85594C7.2363 7.65115 6.43885 7.54881 5.60908 7.54881C4.8224 7.54881 4.14889 7.67277 3.58852 7.9206C3.03892 8.16842 2.61865 8.481 2.32769 8.85814C2.03673 9.22456 1.89124 9.60706 1.89124 10.0058C1.89124 10.2644 1.9559 10.4638 2.08522 10.6039C2.22531 10.744 2.38696 10.814 2.57015 10.814C2.74258 10.814 2.88806 10.7709 3.00659 10.6847C3.12513 10.5985 3.25984 10.4531 3.41071 10.2483C3.5508 10.0543 3.6855 9.82265 3.81482 9.55321C3.95491 9.28377 4.095 8.98745 4.23509 8.66416C4.38596 8.34087 4.53144 8.01223 4.67153 7.67813C4.8224 7.34403 4.96788 7.02074 5.10798 6.70826C5.30195 6.27717 5.50131 5.83002 5.70606 5.36661C5.91082 4.89245 6.10479 4.43445 6.28798 3.99263C6.48196 3.5508 6.65977 3.16285 6.82141 2.82878C6.65977 2.83956 6.46041 2.85033 6.22333 2.86111C5.98624 2.86111 5.73301 2.8665 5.4636 2.87728C5.20496 2.88806 4.94633 2.90422 4.6877 2.92577C4.43985 2.93655 4.22431 2.94732 4.04112 2.9581C3.87948 2.96888 3.66934 2.98504 3.41071 3.00659C3.16285 3.02814 2.93655 3.05509 2.7318 3.08742L2.63481 1.0022ZM13.2872 4.83318C13.2225 5.9755 13.104 7.0262 12.9316 7.98525C12.7699 8.9336 12.506 9.80103 12.1395 10.5877C11.7839 11.3636 11.2936 12.0695 10.6686 12.7053C10.0435 13.3303 9.24608 13.8961 8.27621 14.4026L6.56278 12.9962C7.5542 12.5652 8.34626 12.0695 8.93896 11.5091C9.5424 10.9487 9.995 10.3614 10.2968 9.74718C10.6093 9.13293 10.8248 8.53485 10.9434 7.95293C11.0619 7.36019 11.1373 6.82677 11.1697 6.35264C11.1912 6.04016 11.202 5.73304 11.202 5.43127C11.202 5.11876 11.1912 4.83856 11.1697 4.59071L13.2872 4.83318ZM30.7448 1.2285C30.6694 1.33627 30.5832 1.46019 30.4862 1.60028C30.4 1.7296 30.3138 1.85892 30.2276 1.98823C30.0336 2.27919 29.8181 2.61865 29.581 3.00659C29.3547 3.38376 29.1176 3.78787 28.8698 4.21893C28.6219 4.63921 28.3795 5.05948 28.1424 5.47976C27.9161 5.90004 27.7006 6.28798 27.4958 6.6436C27.7976 6.47115 28.1047 6.34729 28.4172 6.27182C28.7296 6.19635 29.0422 6.15867 29.3547 6.15867C29.9581 6.15867 30.4324 6.34183 30.7772 6.70826C31.1328 7.06388 31.3268 7.58114 31.3591 8.26005C31.3699 8.49716 31.3753 8.78267 31.3753 9.11677C31.3753 9.45087 31.3753 9.78487 31.3753 10.119C31.3861 10.4531 31.4022 10.7332 31.4238 10.9595C31.4561 11.272 31.5692 11.4983 31.7632 11.6384C31.968 11.7677 32.205 11.8324 32.4744 11.8324C32.8193 11.8324 33.1318 11.7301 33.412 11.5253C33.7029 11.3205 33.9616 11.0403 34.1879 10.6847C34.4142 10.3183 34.6082 9.90883 34.7698 9.45622C34.9423 8.99281 35.0877 8.51333 35.2062 8.01758L36.952 9.44006C36.6719 10.3561 36.3162 11.1643 35.8852 11.8647C35.4541 12.5544 34.9261 13.0879 34.301 13.465C33.6868 13.853 32.9647 14.0469 32.135 14.0469C31.5423 14.0469 31.0466 13.9391 30.6479 13.7236C30.2491 13.5189 29.9528 13.2495 29.7588 12.9154C29.5648 12.5706 29.457 12.1988 29.4355 11.8001C29.414 11.5091 29.3978 11.1858 29.387 10.8302C29.387 10.4746 29.3817 10.1298 29.3709 9.79568C29.3709 9.45087 29.3601 9.17062 29.3385 8.95512C29.317 8.67497 29.2254 8.45402 29.0637 8.29238C28.9021 8.13073 28.6758 8.04991 28.3848 8.04991C28.0292 8.04991 27.6898 8.16306 27.3665 8.38937C27.0432 8.61567 26.7469 8.91198 26.4774 9.27841C26.2188 9.64484 25.9925 10.049 25.7985 10.4907C25.6907 10.7279 25.5776 11.008 25.4591 11.3313C25.3406 11.6546 25.2274 11.9887 25.1196 12.3335C25.0118 12.6783 24.9095 13.0016 24.8125 13.3034C24.7155 13.6158 24.6347 13.8799 24.57 14.0954L22.2908 13.3195C22.4956 12.7808 22.7434 12.1665 23.0344 11.4768C23.3362 10.7764 23.6648 10.0435 24.0204 9.27841C24.376 8.51333 24.737 7.7536 25.1034 6.99922C25.4699 6.24485 25.82 5.53364 26.1541 4.86551C26.4882 4.1866 26.7845 3.59929 27.0432 3.10358C27.3126 2.5971 27.5173 2.21453 27.6574 1.9559C27.7652 1.74038 27.8891 1.49791 28.0292 1.2285C28.1693 0.959089 28.3094 0.651964 28.4495 0.307125L30.7448 1.2285ZM44.9858 2.65098C45.3306 2.69408 45.697 2.72641 46.0849 2.74796C46.4837 2.75874 46.8339 2.76413 47.1356 2.76413C47.8037 2.76413 48.4773 2.72641 49.1562 2.65098C49.8459 2.57554 50.5087 2.47855 51.1444 2.36001C51.7802 2.2307 52.3568 2.08522 52.874 1.92357L52.9387 3.79865C52.4753 3.91719 51.9203 4.04112 51.2737 4.17044C50.638 4.28897 49.9644 4.39135 49.2532 4.47756C48.5419 4.553 47.8415 4.59071 47.1518 4.59071C46.8285 4.59071 46.4999 4.58533 46.1658 4.57455C45.8317 4.56377 45.4869 4.5476 45.1312 4.52606L44.9858 2.65098ZM51.2737 0.226303C51.2091 0.495714 51.1229 0.845938 51.0151 1.27699C50.9073 1.70805 50.7834 2.16066 50.6433 2.63481C50.514 3.10897 50.3739 3.57774 50.223 4.04112C49.9859 4.81702 49.6735 5.6414 49.2855 6.51429C48.8976 7.38717 48.4773 8.23853 48.0247 9.06827C47.5721 9.89802 47.1141 10.6362 46.6507 11.2828L44.6948 10.2806C45.0612 9.828 45.4222 9.32691 45.7778 8.77731C46.1334 8.22772 46.4675 7.66197 46.78 7.08004C47.0925 6.49812 47.3727 5.93772 47.6206 5.39894C47.8792 4.84934 48.084 4.35363 48.2348 3.9118C48.4396 3.34066 48.6174 2.70485 48.7682 2.0044C48.9299 1.29316 49.0215 0.62503 49.043 0L51.2737 0.226303ZM55.0562 5.25346C55.0347 5.5983 55.0239 5.94317 55.0239 6.28798C55.0347 6.62208 55.0454 6.96689 55.0562 7.32251C55.067 7.57033 55.0777 7.88827 55.0886 8.27622C55.1101 8.65335 55.1317 9.05747 55.1532 9.48855C55.1747 9.90883 55.1909 10.3129 55.2017 10.7009C55.2232 11.078 55.234 11.3798 55.234 11.6061C55.234 12.1018 55.1317 12.5544 54.9269 12.9639C54.7221 13.3627 54.3935 13.6805 53.9409 13.9176C53.4991 14.1547 52.8902 14.2732 52.1143 14.2732C51.4462 14.2732 50.8426 14.1709 50.3039 13.9661C49.7651 13.7721 49.334 13.4812 49.0107 13.0932C48.6874 12.6945 48.5258 12.1988 48.5258 11.6061C48.5258 11.078 48.6659 10.6039 48.9461 10.1836C49.2262 9.75254 49.6303 9.41854 50.1584 9.18143C50.6972 8.9336 51.3438 8.80964 52.0981 8.80964C53.0465 8.80964 53.9194 8.94431 54.7168 9.21375C55.5142 9.47239 56.2309 9.80649 56.8667 10.216C57.5024 10.6254 58.0467 11.035 58.4993 11.4445L57.4162 13.1741C57.1253 12.9154 56.7912 12.6245 56.414 12.3012C56.0476 11.9779 55.6328 11.6761 55.1694 11.396C54.7168 11.1158 54.221 10.8841 53.6822 10.7009C53.1542 10.5177 52.5831 10.4261 51.9688 10.4261C51.5054 10.4261 51.1336 10.5177 50.8535 10.7009C50.5733 10.8841 50.4332 11.1212 50.4332 11.4121C50.4332 11.7139 50.5517 11.9564 50.7888 12.1395C51.0366 12.3227 51.3815 12.4143 51.8233 12.4143C52.1898 12.4143 52.4807 12.355 52.6962 12.2365C52.9117 12.1072 53.0626 11.9294 53.1488 11.7031C53.235 11.466 53.2781 11.202 53.2781 10.911C53.2781 10.6632 53.2673 10.3129 53.2458 9.86033C53.2243 9.40773 53.1973 8.90663 53.165 8.35704C53.1435 7.80745 53.1218 7.25785 53.1003 6.70826C53.0788 6.15867 53.0572 5.67373 53.0357 5.25346H55.0562ZM57.8365 6.11017C57.524 5.85154 57.1361 5.57675 56.6727 5.28579C56.2093 4.99483 55.7298 4.72003 55.234 4.4614C54.7491 4.19199 54.3235 3.97646 53.957 3.81482L54.9916 2.21453C55.2825 2.34385 55.6112 2.50549 55.9776 2.69947C56.3547 2.88266 56.732 3.07664 57.1091 3.28139C57.4971 3.48614 57.8527 3.69089 58.176 3.89564C58.5101 4.08961 58.7794 4.26204 58.9842 4.4129L57.8365 6.11017ZM66.9856 2.14988C67.3089 2.1391 67.616 2.12833 67.907 2.11755C68.1979 2.096 68.4189 2.07983 68.5697 2.06905C68.9038 2.0475 69.3133 2.01518 69.7982 1.97207C70.294 1.91819 70.8436 1.8643 71.447 1.81042C72.0613 1.75654 72.7132 1.70266 73.4029 1.64878C74.0926 1.5949 74.8092 1.53563 75.5528 1.47097C76.1132 1.41709 76.6681 1.37398 77.2177 1.34165C77.7781 1.29854 78.3061 1.26621 78.8019 1.24467C79.3083 1.21234 79.7502 1.19079 80.1273 1.18001L80.1435 3.24906C79.8525 3.24906 79.5184 3.25445 79.1413 3.26523C78.7642 3.276 78.3869 3.29755 78.0098 3.32988C77.6434 3.35143 77.3147 3.39993 77.0238 3.47536C76.5388 3.60468 76.0862 3.8256 75.6659 4.13811C75.2457 4.43985 74.8792 4.80085 74.5668 5.22113C74.265 5.63063 74.028 6.07785 73.8555 6.56278C73.6831 7.0369 73.5969 7.51648 73.5969 8.00142C73.5969 8.52949 73.6885 8.99826 73.8717 9.40773C74.0657 9.80649 74.3243 10.1513 74.6476 10.4423C74.9817 10.7224 75.3696 10.9595 75.8114 11.1535C76.2532 11.3367 76.7274 11.4768 77.2339 11.5738C77.7512 11.6708 78.2846 11.7354 78.8342 11.7677L78.0744 13.9823C77.3955 13.9391 76.7328 13.8314 76.0862 13.659C75.4504 13.4865 74.8524 13.2495 74.292 12.9478C73.7316 12.646 73.2413 12.2797 72.821 11.8486C72.4115 11.4068 72.0828 10.9057 71.835 10.3453C71.5978 9.77416 71.4793 9.13829 71.4793 8.43786C71.4793 7.66196 71.6033 6.95073 71.8511 6.30415C72.0989 5.64679 72.4061 5.07565 72.7725 4.59071C73.1496 4.095 73.5214 3.71245 73.8878 3.44303C73.5861 3.48614 73.2197 3.52924 72.7887 3.57235C72.3684 3.61546 71.9104 3.66934 71.4147 3.734C70.9297 3.78787 70.434 3.84715 69.9275 3.9118C69.4211 3.97646 68.9307 4.0519 68.4566 4.13811C67.9932 4.21354 67.5729 4.28897 67.1957 4.36441L66.9856 2.14988ZM77.832 4.83318C77.9721 5.02715 78.1176 5.25884 78.2684 5.52825C78.4301 5.78688 78.5864 6.05087 78.7372 6.32031C78.888 6.57894 79.0173 6.81606 79.1251 7.03155L77.8966 7.58114C77.6919 7.12854 77.4925 6.72978 77.2985 6.38497C77.1154 6.04016 76.8944 5.6899 76.6358 5.33428L77.832 4.83318ZM79.6424 4.08961C79.7825 4.28359 79.9334 4.50989 80.095 4.76852C80.2675 5.01637 80.4345 5.27501 80.5961 5.54442C80.7578 5.80305 80.8924 6.03471 81.0002 6.23949L79.7879 6.82141C79.5724 6.39032 79.3622 6.00783 79.1575 5.67373C78.9635 5.33966 78.7318 4.99483 78.4624 4.63921L79.6424 4.08961Z" fill="#0D0F18"/>
</svg>
