<svg width="242" height="15" viewBox="0 0 242 15" fill="none" xmlns="http://www.w3.org/2000/svg">
<path d="M4.97461 13.9999H0.333984V0.908958H5.01296C6.32973 0.908958 7.46325 1.17103 8.41353 1.69518C9.36382 2.21507 10.0947 2.96294 10.606 3.93879C11.1216 4.91464 11.3795 6.08226 11.3795 7.44163C11.3795 8.80527 11.1216 9.97714 10.606 10.9573C10.0947 11.9374 9.35956 12.6895 8.40075 13.2137C7.4462 13.7378 6.30416 13.9999 4.97461 13.9999ZM3.10174 11.6285H4.85955C5.67774 11.6285 6.36595 11.4836 6.92419 11.1938C7.48669 10.8998 7.90856 10.4459 8.18981 9.83226C8.47532 9.21436 8.61808 8.41748 8.61808 7.44163C8.61808 6.4743 8.47532 5.68382 8.18981 5.07018C7.90856 4.45655 7.48882 4.00484 6.93058 3.71507C6.37234 3.4253 5.68413 3.28041 4.86595 3.28041H3.10174V11.6285ZM19.4297 13.9999V0.908958H28.2507V3.19092H22.1975V6.31024H27.7969V8.5922H22.1975V11.7179H28.2763V13.9999H19.4297ZM43.5527 4.67388C43.5016 4.15825 43.2822 3.75768 42.8944 3.47217C42.5066 3.18666 41.9803 3.0439 41.3155 3.0439C40.8638 3.0439 40.4824 3.10782 40.1714 3.23567C39.8603 3.35925 39.6216 3.53183 39.4554 3.75342C39.2935 3.97501 39.2125 4.22643 39.2125 4.50768C39.204 4.74206 39.253 4.9466 39.3596 5.12132C39.4704 5.29603 39.6216 5.44731 39.8134 5.57515C40.0052 5.69873 40.2268 5.8074 40.4782 5.90115C40.7296 5.99064 40.9981 6.06734 41.2836 6.13126L42.4597 6.41251C43.0307 6.54035 43.5549 6.71081 44.0321 6.92388C44.5094 7.13694 44.9228 7.39902 45.2722 7.7101C45.6216 8.02118 45.8922 8.38765 46.084 8.80953C46.28 9.2314 46.3802 9.71507 46.3844 10.2606C46.3802 11.0617 46.1756 11.7563 45.7708 12.3444C45.3702 12.9282 44.7907 13.382 44.0321 13.7059C43.2779 14.0255 42.3681 14.1853 41.3027 14.1853C40.2459 14.1853 39.3255 14.0233 38.5414 13.6995C37.7616 13.3756 37.1522 12.8962 36.7133 12.2613C36.2786 11.6221 36.0506 10.8316 36.0293 9.88978H38.7076C38.7374 10.3287 38.8631 10.6952 39.0847 10.9892C39.3106 11.279 39.611 11.4985 39.986 11.6476C40.3652 11.7925 40.7935 11.865 41.2708 11.865C41.7395 11.865 42.1465 11.7968 42.4917 11.6604C42.8411 11.524 43.1117 11.3344 43.3035 11.0915C43.4952 10.8486 43.5911 10.5695 43.5911 10.2542C43.5911 9.9601 43.5037 9.71294 43.329 9.51265C43.1586 9.31237 42.9072 9.14192 42.5748 9.00129C42.2466 8.86067 41.8439 8.73282 41.3667 8.61777L39.9412 8.25981C38.8375 7.99135 37.9661 7.5716 37.3269 7.00058C36.6877 6.42956 36.3702 5.66038 36.3745 4.69305C36.3702 3.90044 36.5812 3.20797 37.0073 2.61564C37.4377 2.02331 38.0279 1.56095 38.7779 1.22856C39.5279 0.896173 40.3802 0.72998 41.3347 0.72998C42.3063 0.72998 43.1543 0.896173 43.8787 1.22856C44.6074 1.56095 45.1742 2.02331 45.579 2.61564C45.9839 3.20797 46.1927 3.89405 46.2054 4.67388H43.5527ZM57.0139 0.908958V13.9999H54.2461V0.908958H57.0139ZM73.9714 5.1405C73.8819 4.82942 73.7562 4.55456 73.5943 4.31592C73.4324 4.07302 73.2342 3.86848 72.9998 3.70228C72.7697 3.53183 72.5055 3.40186 72.2072 3.31237C71.9132 3.22288 71.5872 3.17814 71.2292 3.17814C70.5602 3.17814 69.9721 3.34433 69.465 3.67672C68.9622 4.0091 68.5701 4.49277 68.2889 5.12771C68.0076 5.75839 67.867 6.5297 67.867 7.44163C67.867 8.35356 68.0055 9.12913 68.2825 9.76834C68.5595 10.4076 68.9515 10.8955 69.4586 11.2321C69.9657 11.5645 70.5645 11.7307 71.2548 11.7307C71.8812 11.7307 72.416 11.6199 72.8592 11.3983C73.3067 11.1725 73.6476 10.855 73.8819 10.4459C74.1206 10.0368 74.2399 9.55314 74.2399 8.9949L74.8024 9.078H71.4274V6.99419H76.9054V8.64334C76.9054 9.7939 76.6625 10.7826 76.1767 11.6093C75.6909 12.4317 75.0219 13.0667 74.1696 13.5141C73.3173 13.9573 72.3415 14.1789 71.242 14.1789C70.0147 14.1789 68.9366 13.9083 68.0076 13.3671C67.0787 12.8216 66.3542 12.0482 65.8344 11.0468C65.3187 10.0411 65.0609 8.84788 65.0609 7.4672C65.0609 6.40612 65.2143 5.4601 65.5211 4.62913C65.8322 3.7939 66.2669 3.08652 66.8251 2.50697C67.3834 1.92743 68.0332 1.48638 68.7747 1.18382C69.5162 0.881259 70.3194 0.72998 71.1845 0.72998C71.926 0.72998 72.6163 0.838645 73.2555 1.05598C73.8947 1.26905 74.4615 1.5716 74.9558 1.96365C75.4544 2.35569 75.8613 2.82231 76.1767 3.36351C76.492 3.90044 76.6944 4.49277 76.7839 5.1405H73.9714ZM95.934 0.908958V13.9999H93.5433L87.848 5.76052H87.7521V13.9999H84.9844V0.908958H87.4134L93.0639 9.14192H93.179V0.908958H95.934ZM113.888 3.19092V0.908958H124.64V3.19092H120.632V13.9999H117.896V3.19092H113.888ZM132.41 13.9999V0.908958H137.575C138.564 0.908958 139.407 1.08581 140.106 1.4395C140.809 1.78893 141.344 2.28538 141.711 2.92885C142.081 3.56805 142.267 4.32018 142.267 5.18524C142.267 6.05456 142.079 6.80243 141.704 7.42885C141.329 8.05101 140.786 8.52828 140.074 8.86067C139.367 9.19305 138.51 9.35925 137.505 9.35925H134.047V7.13481H137.057C137.586 7.13481 138.025 7.06237 138.374 6.91748C138.723 6.7726 138.983 6.55527 139.154 6.2655C139.329 5.97572 139.416 5.61564 139.416 5.18524C139.416 4.75058 139.329 4.3841 139.154 4.08581C138.983 3.78751 138.721 3.56166 138.368 3.40825C138.018 3.25058 137.577 3.17175 137.045 3.17175H135.178V13.9999H132.41ZM139.48 8.04248L142.733 13.9999H139.678L136.495 8.04248H139.48ZM152.479 13.9999H149.513L154.032 0.908958H157.599L162.112 13.9999H159.146L155.867 3.90044H155.765L152.479 13.9999ZM152.294 8.85427H159.299V11.0148H152.294V8.85427ZM172.455 0.908958V13.9999H169.688V0.908958H172.455ZM191.682 0.908958V13.9999H189.291L183.596 5.76052H183.5V13.9999H180.733V0.908958H183.162L188.812 9.14192H188.927V0.908958H191.682ZM202.737 0.908958V13.9999H199.969V0.908958H202.737ZM221.963 0.908958V13.9999H219.573L213.877 5.76052H213.782V13.9999H211.014V0.908958H213.443L219.093 9.14192H219.208V0.908958H221.963ZM238.931 5.1405C238.841 4.82942 238.715 4.55456 238.553 4.31592C238.391 4.07302 238.193 3.86848 237.959 3.70228C237.729 3.53183 237.465 3.40186 237.166 3.31237C236.872 3.22288 236.546 3.17814 236.188 3.17814C235.519 3.17814 234.931 3.34433 234.424 3.67672C233.921 4.0091 233.529 4.49277 233.248 5.12771C232.967 5.75839 232.826 6.5297 232.826 7.44163C232.826 8.35356 232.965 9.12913 233.242 9.76834C233.519 10.4076 233.911 10.8955 234.418 11.2321C234.925 11.5645 235.524 11.7307 236.214 11.7307C236.84 11.7307 237.375 11.6199 237.818 11.3983C238.266 11.1725 238.607 10.855 238.841 10.4459C239.08 10.0368 239.199 9.55314 239.199 8.9949L239.761 9.078H236.386V6.99419H241.864V8.64334C241.864 9.7939 241.622 10.7826 241.136 11.6093C240.65 12.4317 239.981 13.0667 239.129 13.5141C238.276 13.9573 237.301 14.1789 236.201 14.1789C234.974 14.1789 233.896 13.9083 232.967 13.3671C232.038 12.8216 231.313 12.0482 230.793 11.0468C230.278 10.0411 230.02 8.84788 230.02 7.4672C230.02 6.40612 230.173 5.4601 230.48 4.62913C230.791 3.7939 231.226 3.08652 231.784 2.50697C232.342 1.92743 232.992 1.48638 233.734 1.18382C234.475 0.881259 235.279 0.72998 236.144 0.72998C236.885 0.72998 237.575 0.838645 238.215 1.05598C238.854 1.26905 239.421 1.5716 239.915 1.96365C240.413 2.35569 240.82 2.82231 241.136 3.36351C241.451 3.90044 241.654 4.49277 241.743 5.1405H238.931Z" fill="#1D382F"/>
</svg>
